<svg width="49" height="45" viewBox="0 0 49 45" fill="none" xmlns="http://www.w3.org/2000/svg">
<path opacity="0.4" d="M34.449 0.677002H14.554C5.91229 0.677002 0.760498 5.42042 0.760498 13.3771V31.6732C0.760498 39.6517 5.91229 44.3952 14.554 44.3952H34.4252C43.067 44.3952 48.2187 39.6517 48.2187 31.695V13.3771C48.2425 5.42042 43.0907 0.677002 34.449 0.677002Z" fill="#292D32"/>
<path d="M36.3719 14.339H12.6309C11.6575 14.339 10.8503 13.5958 10.8503 12.6996C10.8503 11.8033 11.6575 11.0601 12.6309 11.0601H36.3719C37.3453 11.0601 38.1525 11.8033 38.1525 12.6996C38.1525 13.5958 37.3453 14.339 36.3719 14.339Z" fill="#292D32"/>
<path d="M36.3719 24.1756H12.6309C11.6575 24.1756 10.8503 23.4324 10.8503 22.5362C10.8503 21.6399 11.6575 20.8967 12.6309 20.8967H36.3719C37.3453 20.8967 38.1525 21.6399 38.1525 22.5362C38.1525 23.4324 37.3453 24.1756 36.3719 24.1756Z" fill="#292D32"/>
<path d="M36.3719 34.0122H12.6309C11.6575 34.0122 10.8503 33.269 10.8503 32.3728C10.8503 31.4765 11.6575 30.7333 12.6309 30.7333H36.3719C37.3453 30.7333 38.1525 31.4765 38.1525 32.3728C38.1525 33.269 37.3453 34.0122 36.3719 34.0122Z" fill="#292D32"/>
</svg>
