<svg width="205" height="211" viewBox="0 0 205 211" fill="none" xmlns="http://www.w3.org/2000/svg">
<path d="M204.952 105.747C204.952 47.7814 159.066 0.546631 102.756 0.546631C46.445 0.546631 0.558594 47.7814 0.558594 105.747C0.558594 136.255 13.3332 163.712 33.5682 182.963C33.5682 183.069 33.5682 183.069 33.466 183.174C34.488 184.226 35.7143 185.067 36.7363 186.014C37.3495 186.54 37.8605 187.066 38.4737 187.487C40.3132 189.065 42.3571 190.538 44.2989 192.011C45.0143 192.537 45.6274 192.957 46.3428 193.483C48.2846 194.851 50.3285 196.113 52.4746 197.271C53.19 197.691 54.0076 198.217 54.723 198.638C56.7669 199.795 58.9131 200.847 61.1614 201.794C61.979 202.215 62.7965 202.636 63.6141 202.951C65.8624 203.898 68.1108 204.74 70.3591 205.476C71.1767 205.792 71.9943 206.107 72.8118 206.318C75.2646 207.054 77.7173 207.685 80.17 208.317C80.8854 208.527 81.6008 208.737 82.4184 208.843C85.2799 209.474 88.1414 209.895 91.1051 210.21C91.5139 210.21 91.9227 210.315 92.3315 210.421C95.8061 210.736 99.2808 210.947 102.756 210.947C106.23 210.947 109.705 210.736 113.077 210.421C113.486 210.421 113.895 210.315 114.304 210.21C117.268 209.895 120.129 209.474 122.991 208.843C123.706 208.737 124.421 208.422 125.239 208.317C127.692 207.685 130.247 207.159 132.597 206.318C133.415 206.002 134.232 205.687 135.05 205.476C137.298 204.635 139.649 203.898 141.795 202.951C142.612 202.636 143.43 202.215 144.247 201.794C146.394 200.847 148.54 199.795 150.686 198.638C151.503 198.217 152.219 197.691 152.934 197.271C154.978 196.008 157.022 194.851 159.066 193.483C159.781 193.063 160.395 192.537 161.11 192.011C163.154 190.538 165.096 189.065 166.935 187.487C167.548 186.961 168.059 186.435 168.673 186.014C169.797 185.067 170.921 184.121 171.943 183.174C171.943 183.069 171.943 183.069 171.841 182.963C192.178 163.712 204.952 136.255 204.952 105.747ZM153.241 158.031C125.545 138.885 80.17 138.885 52.2703 158.031C47.7736 161.082 44.0945 164.659 41.0286 168.551C25.4946 152.35 15.8881 130.153 15.8881 105.747C15.8881 56.4078 54.8252 16.3266 102.756 16.3266C150.686 16.3266 189.623 56.4078 189.623 105.747C189.623 130.153 180.016 152.35 164.483 168.551C161.519 164.659 157.738 161.082 153.241 158.031Z" fill="#292D32"/>
<path d="M102.756 52.407C81.6007 52.407 64.4316 70.0806 64.4316 91.8571C64.4316 113.213 80.681 130.571 102.245 131.202H103.164H103.88H104.084C124.728 130.465 140.977 113.213 141.079 91.8571C141.079 70.0806 123.91 52.407 102.756 52.407Z" fill="#292D32"/>
</svg>
