<svg width="24" height="26" viewBox="0 0 24 26" fill="none" xmlns="http://www.w3.org/2000/svg">
<path d="M17.535 7.86047H6.04663C5.55081 7.86047 5.13965 7.4493 5.13965 6.95349V4.53488C5.13965 1.43907 6.57872 0 9.67453 0H13.9071C17.0029 0 18.442 1.43907 18.442 4.53488V6.95349C18.442 7.4493 18.0308 7.86047 17.535 7.86047ZM6.9536 6.04651H16.628V4.53488C16.628 2.47907 15.9629 1.81395 13.9071 1.81395H9.67453C7.61872 1.81395 6.9536 2.47907 6.9536 4.53488V6.04651Z" fill="#292D32"/>
<path d="M13.0004 26H10.5818C7.65525 26 6.04688 24.3916 6.04688 21.4651V16.6279C6.04688 16.1321 6.45804 15.7209 6.95385 15.7209H16.6283C17.1241 15.7209 17.5352 16.1321 17.5352 16.6279V21.4651C17.5352 24.3916 15.9269 26 13.0004 26ZM7.86083 17.5349V21.4651C7.86083 23.3758 8.67106 24.1861 10.5818 24.1861H13.0004C14.9111 24.1861 15.7213 23.3758 15.7213 21.4651V17.5349H7.86083Z" fill="#292D32"/>
<path d="M19.0465 21.1628H16.6279C16.1321 21.1628 15.7209 20.7516 15.7209 20.2558V17.5349H7.86047V20.2558C7.86047 20.7516 7.4493 21.1628 6.95349 21.1628H4.53488C1.60837 21.1628 0 19.5544 0 16.6279V10.5814C0 7.65488 1.60837 6.04651 4.53488 6.04651H19.0465C21.973 6.04651 23.5814 7.65488 23.5814 10.5814V16.6279C23.5814 19.5544 21.973 21.1628 19.0465 21.1628ZM17.5349 19.3488H19.0465C20.9572 19.3488 21.7674 18.5386 21.7674 16.6279V10.5814C21.7674 8.67069 20.9572 7.86046 19.0465 7.86046H4.53488C2.62419 7.86046 1.81395 8.67069 1.81395 10.5814V16.6279C1.81395 18.5386 2.62419 19.3488 4.53488 19.3488H6.04651V16.6279C6.04651 16.1321 6.45767 15.7209 6.95349 15.7209H16.6279C17.1237 15.7209 17.5349 16.1321 17.5349 16.6279V19.3488Z" fill="#292D32"/>
<path d="M17.8369 17.5349H5.74389C5.24808 17.5349 4.83691 17.1237 4.83691 16.6279C4.83691 16.1321 5.24808 15.7209 5.74389 15.7209H17.8369C18.3327 15.7209 18.7439 16.1321 18.7439 16.6279C18.7439 17.1237 18.3327 17.5349 17.8369 17.5349Z" fill="#292D32"/>
<path d="M9.3718 12.6976H5.74389C5.24808 12.6976 4.83691 12.2865 4.83691 11.7906C4.83691 11.2948 5.24808 10.8837 5.74389 10.8837H9.3718C9.86761 10.8837 10.2788 11.2948 10.2788 11.7906C10.2788 12.2865 9.86761 12.6976 9.3718 12.6976Z" fill="#292D32"/>
</svg>
