<svg width="13" height="26" viewBox="0 0 13 26" fill="none" xmlns="http://www.w3.org/2000/svg">
<path d="M1.12098 26C0.836049 26 0.551118 25.895 0.326172 25.6701C-0.108724 25.2352 -0.108724 24.5154 0.326172 24.0805L10.1038 14.3028C10.8236 13.583 10.8236 12.4132 10.1038 11.6934L0.326172 1.91579C-0.108724 1.4809 -0.108724 0.761068 0.326172 0.326172C0.761068 -0.108724 1.48089 -0.108724 1.91579 0.326172L11.6934 10.1038C12.4583 10.8686 12.8931 11.9034 12.8931 12.9981C12.8931 14.0928 12.4733 15.1276 11.6934 15.8924L1.91579 25.6701C1.69084 25.88 1.40591 26 1.12098 26Z" fill="#292D32"/>
</svg>
