<svg width="24" height="26" viewBox="0 0 24 26" fill="none" xmlns="http://www.w3.org/2000/svg">
<path d="M23.0847 6.62694C23.0601 6.62694 23.0231 6.62694 22.9862 6.62694C16.4745 5.98601 9.97511 5.74415 3.53722 6.38508L1.02609 6.62694C0.509092 6.67531 0.0536418 6.31252 0.00440394 5.80462C-0.0448339 5.29671 0.32445 4.86136 0.829138 4.81299L3.34027 4.57113C9.88894 3.91811 16.5237 4.17206 23.1709 4.81299C23.6756 4.86136 24.0448 5.3088 23.9956 5.80462C23.9587 6.27624 23.5525 6.62694 23.0847 6.62694Z" fill="#292D32"/>
<path d="M7.69951 5.40556C7.65028 5.40556 7.60104 5.40556 7.53949 5.39346C7.04711 5.30881 6.70245 4.83719 6.78861 4.35347L7.05942 2.76929C7.25637 1.60836 7.52718 0 10.3952 0H13.6203C16.5007 0 16.7715 1.66883 16.9562 2.78138L17.227 4.35347C17.3132 4.84928 16.9685 5.32091 16.4761 5.39346C15.9714 5.47811 15.4914 5.13951 15.4175 4.65579L15.1467 3.08371C14.9744 2.03162 14.9374 1.82604 13.6326 1.82604H10.4075C9.10279 1.82604 9.07818 1.99534 8.89353 3.07161L8.61042 4.6437C8.53656 5.09114 8.14266 5.40556 7.69951 5.40556Z" fill="#292D32"/>
<path d="M15.9584 25.9999H8.05567C3.75967 25.9999 3.58733 23.666 3.45193 21.7795L2.65181 9.60183C2.61489 9.10602 3.00879 8.67069 3.51348 8.63441C4.03047 8.61022 4.46131 8.9851 4.49823 9.48092L5.29835 21.6586C5.43375 23.4967 5.48299 24.186 8.05567 24.186H15.9584C18.5434 24.186 18.5926 23.4967 18.7157 21.6586L19.5158 9.48092C19.5527 8.9851 19.9959 8.61022 20.5006 8.63441C21.0052 8.67069 21.3991 9.09393 21.3622 9.60183L20.5621 21.7795C20.4267 23.666 20.2544 25.9999 15.9584 25.9999Z" fill="#292D32"/>
<path d="M14.0496 19.3486H9.95058C9.44587 19.3486 9.02734 18.9375 9.02734 18.4416C9.02734 17.9458 9.44587 17.5347 9.95058 17.5347H14.0496C14.5543 17.5347 14.9728 17.9458 14.9728 18.4416C14.9728 18.9375 14.5543 19.3486 14.0496 19.3486Z" fill="#292D32"/>
<path d="M15.0838 14.5116H8.92907C8.42438 14.5116 8.00586 14.1004 8.00586 13.6046C8.00586 13.1088 8.42438 12.6976 8.92907 12.6976H15.0838C15.5885 12.6976 16.007 13.1088 16.007 13.6046C16.007 14.1004 15.5885 14.5116 15.0838 14.5116Z" fill="#292D32"/>
</svg>
