<svg width="22" height="24" viewBox="0 0 22 24" fill="none" xmlns="http://www.w3.org/2000/svg">
<path d="M14.2322 13.0608H6.41827C5.96059 13.0608 5.58105 12.6812 5.58105 12.2236C5.58105 11.7659 5.96059 11.3864 6.41827 11.3864H14.2322C14.6899 11.3864 15.0694 11.7659 15.0694 12.2236C15.0694 12.6812 14.6899 13.0608 14.2322 13.0608Z" fill="#292D32"/>
<path d="M11.3076 17.5259H6.41827C5.96059 17.5259 5.58105 17.1463 5.58105 16.6887C5.58105 16.231 5.96059 15.8514 6.41827 15.8514H11.3076C11.7653 15.8514 12.1448 16.231 12.1448 16.6887C12.1448 17.1463 11.7653 17.5259 11.3076 17.5259Z" fill="#292D32"/>
<path d="M13.116 6.13955H8.65083C7.5792 6.13955 5.58105 6.13955 5.58105 3.06977C5.58105 0 7.5792 0 8.65083 0H13.116C14.1876 0 16.1857 0 16.1857 3.06977C16.1857 4.1414 16.1857 6.13955 13.116 6.13955ZM8.65083 1.67442C7.54571 1.67442 7.25548 1.67442 7.25548 3.06977C7.25548 4.46513 7.54571 4.46513 8.65083 4.46513H13.116C14.5113 4.46513 14.5113 4.17489 14.5113 3.06977C14.5113 1.67442 14.2211 1.67442 13.116 1.67442H8.65083Z" fill="#292D32"/>
<path d="M14.2326 23.9999H7.5349C1.2614 23.9999 0 21.1199 0 16.465V9.76735C0 4.67711 1.84186 2.50036 6.37397 2.26594C6.82048 2.24361 7.2335 2.58966 7.25583 3.0585C7.27815 3.52734 6.92094 3.90687 6.46327 3.9292C3.29303 4.1078 1.67442 5.05664 1.67442 9.76735V16.465C1.67442 20.5952 2.48931 22.3255 7.5349 22.3255H14.2326C19.2782 22.3255 20.0931 20.5952 20.0931 16.465V9.76735C20.0931 5.05664 18.4745 4.1078 15.3042 3.9292C14.8465 3.90687 14.4893 3.50501 14.5117 3.04734C14.534 2.58966 14.9358 2.23245 15.3935 2.25478C19.9256 2.50036 21.7675 4.67711 21.7675 9.75619V16.4538C21.7675 21.1199 20.5061 23.9999 14.2326 23.9999Z" fill="#292D32"/>
</svg>
