<svg width="23" height="25" viewBox="0 0 23 25" fill="none" xmlns="http://www.w3.org/2000/svg">
<path d="M6.68557 5.23256C6.20883 5.23256 5.81348 4.83721 5.81348 4.36047V0.872093C5.81348 0.395349 6.20883 0 6.68557 0C7.16231 0 7.55766 0.395349 7.55766 0.872093V4.36047C7.55766 4.83721 7.16231 5.23256 6.68557 5.23256Z" fill="#292D32"/>
<path d="M15.9883 5.23256C15.5116 5.23256 15.1162 4.83721 15.1162 4.36047V0.872093C15.1162 0.395349 15.5116 0 15.9883 0C16.465 0 16.8604 0.395349 16.8604 0.872093V4.36047C16.8604 4.83721 16.465 5.23256 15.9883 5.23256Z" fill="#292D32"/>
<path d="M14.8256 25H7.84884C1.31395 25 0 21.9186 0 16.9419V9.76746C0 4.25583 1.86047 2.01164 6.63954 1.7442H15.9884H16.0349C20.814 2.01164 22.6744 4.25583 22.6744 9.76746V16.9419C22.6744 21.9186 21.3605 25 14.8256 25ZM6.68605 3.48839C3.43023 3.67443 1.74419 4.69769 1.74419 9.76746V16.9419C1.74419 21.3954 2.59302 23.2558 7.84884 23.2558H14.8256C20.0814 23.2558 20.9302 21.3954 20.9302 16.9419V9.76746C20.9302 4.70932 19.2558 3.67443 15.9651 3.48839H6.68605Z" fill="#292D32"/>
<path d="M21.5119 19.8838H1.16311C0.686364 19.8838 0.291016 19.4885 0.291016 19.0117C0.291016 18.535 0.686364 18.1396 1.16311 18.1396H21.5119C21.9887 18.1396 22.384 18.535 22.384 19.0117C22.384 19.4885 21.9887 19.8838 21.5119 19.8838Z" fill="#292D32"/>
<path d="M11.3367 8.13953C9.90643 8.13953 8.69713 8.9186 8.69713 10.4302C8.69713 11.1512 9.03434 11.6977 9.54597 12.0465C8.83666 12.4651 8.42969 13.1395 8.42969 13.9302C8.42969 15.3721 9.53434 16.2674 11.3367 16.2674C13.1274 16.2674 14.2436 15.3721 14.2436 13.9302C14.2436 13.1395 13.8367 12.4535 13.1157 12.0465C13.639 11.686 13.9646 11.1512 13.9646 10.4302C13.9646 8.9186 12.7669 8.13953 11.3367 8.13953ZM11.3367 11.4419C10.732 11.4419 10.2902 11.0814 10.2902 10.5116C10.2902 9.93022 10.732 9.59301 11.3367 9.59301C11.9413 9.59301 12.3832 9.93022 12.3832 10.5116C12.3832 11.0814 11.9413 11.4419 11.3367 11.4419ZM11.3367 14.8256C10.5692 14.8256 10.0111 14.4419 10.0111 13.7442C10.0111 13.0465 10.5692 12.6744 11.3367 12.6744C12.1041 12.6744 12.6622 13.0581 12.6622 13.7442C12.6622 14.4419 12.1041 14.8256 11.3367 14.8256Z" fill="#292D32"/>
</svg>
