<svg width="23" height="23" viewBox="0 0 23 23" fill="none" xmlns="http://www.w3.org/2000/svg">
<path d="M16.8488 23H6.15116C1.43349 23 0 21.5665 0 16.8488V6.15116C0 1.43349 1.43349 0 6.15116 0H7.75581C9.62791 0 10.2163 0.609767 10.9651 1.60465L12.5698 3.74419C12.9228 4.21488 12.9763 4.27907 13.6395 4.27907H16.8488C21.5665 4.27907 23 5.71256 23 10.4302V16.8488C23 21.5665 21.5665 23 16.8488 23ZM6.15116 1.60465C2.33209 1.60465 1.60465 2.33209 1.60465 6.15116V16.8488C1.60465 20.6679 2.33209 21.3953 6.15116 21.3953H16.8488C20.6679 21.3953 21.3953 20.6679 21.3953 16.8488V10.4302C21.3953 6.61116 20.6679 5.88372 16.8488 5.88372H13.6395C12.2702 5.88372 11.8209 5.41302 11.286 4.70698L9.6814 2.56744C9.12512 1.8293 8.96465 1.60465 7.75581 1.60465H6.15116Z" fill="#292D32"/>
</svg>
