<svg width="23" height="23" viewBox="0 0 23 23" fill="none" xmlns="http://www.w3.org/2000/svg">
<path d="M11.5767 22.9956C9.95183 22.9956 8.31542 22.3733 7.08234 21.1402L1.86192 15.9198C0.594269 14.6521 -0.0741296 12.9004 0.00653913 11.1142L0.283118 5.35214C0.409883 2.59788 2.58794 0.419819 5.35372 0.28153L11.1158 0.00495142C12.902 -0.0641932 14.6537 0.592681 15.9213 1.86033L21.1417 7.08075C23.6194 9.55846 23.6194 13.6034 21.1417 16.0811L16.0827 21.1402C14.8381 22.3733 13.2132 22.9956 11.5767 22.9956ZM3.08348 14.6867L8.3039 19.9071C9.17973 20.7829 10.3437 21.267 11.5767 21.267C12.8098 21.267 13.9737 20.7829 14.8496 19.9071L19.9087 14.848C20.7845 13.9722 21.2685 12.8083 21.2685 11.5752C21.2685 10.3421 20.7845 9.17814 19.9087 8.30231L14.6882 3.08189C13.7663 2.15996 12.4871 1.66442 11.1964 1.73357L5.43439 2.01015C3.55596 2.09081 2.0924 3.55438 2.00021 5.42128L1.72363 11.1834C1.66601 12.4856 2.16155 13.7648 3.08348 14.6867Z" fill="#292D32"/>
<path d="M8.61643 12.3586C6.55361 12.3586 4.87109 10.6761 4.87109 8.61325C4.87109 6.55044 6.55361 4.86792 8.61643 4.86792C10.6792 4.86792 12.3618 6.55044 12.3618 8.61325C12.3618 10.6761 10.6792 12.3586 8.61643 12.3586ZM8.61643 6.59654C7.51011 6.59654 6.59971 7.50694 6.59971 8.61325C6.59971 9.71957 7.51011 10.63 8.61643 10.63C9.72274 10.63 10.6331 9.71957 10.6331 8.61325C10.6331 7.50694 9.72274 6.59654 8.61643 6.59654Z" fill="#292D32"/>
</svg>
