<svg width="7" height="13" viewBox="0 0 7 13" fill="none" xmlns="http://www.w3.org/2000/svg">
<path d="M0.536384 12.4409C0.400045 12.4409 0.263707 12.3906 0.156072 12.283C-0.0520238 12.0749 -0.0520238 11.7305 0.156072 11.5224L4.83462 6.84381C5.17906 6.49938 5.17906 5.93967 4.83462 5.59524L0.156072 0.916696C-0.0520238 0.708601 -0.0520238 0.364167 0.156072 0.156072C0.364167 -0.0520238 0.7086 -0.0520238 0.916696 0.156072L5.59525 4.83461C5.96121 5.20058 6.1693 5.6957 6.1693 6.21953C6.1693 6.74335 5.96838 7.23848 5.59525 7.60444L0.916696 12.283C0.80906 12.3835 0.672722 12.4409 0.536384 12.4409Z" fill="#292D32"/>
</svg>
