<svg width="23" height="23" viewBox="0 0 23 23" fill="none" xmlns="http://www.w3.org/2000/svg">
<path d="M10.9662 21.9324C4.92141 21.9324 0 17.011 0 10.9662C0 4.92141 4.92141 0 10.9662 0C17.011 0 21.9324 4.92141 21.9324 10.9662C21.9324 17.011 17.011 21.9324 10.9662 21.9324ZM10.9662 1.60481C5.79871 1.60481 1.60481 5.8094 1.60481 10.9662C1.60481 16.123 5.79871 20.3276 10.9662 20.3276C16.1337 20.3276 20.3276 16.123 20.3276 10.9662C20.3276 5.8094 16.1337 1.60481 10.9662 1.60481Z" fill="#292D32"/>
<path d="M22.2002 23.0021C21.9969 23.0021 21.7937 22.9272 21.6332 22.7668L19.4934 20.627C19.1832 20.3168 19.1832 19.8032 19.4934 19.493C19.8037 19.1827 20.3172 19.1827 20.6275 19.493L22.7672 21.6327C23.0775 21.943 23.0775 22.4565 22.7672 22.7668C22.6068 22.9272 22.4035 23.0021 22.2002 23.0021Z" fill="#292D32"/>
</svg>
