<svg width="23" height="23" viewBox="0 0 23 23" fill="none" xmlns="http://www.w3.org/2000/svg">
<path d="M14.1238 22.0845H7.96068C2.38307 22.0845 0 19.7014 0 14.1238V7.96068C0 2.38307 2.38307 0 7.96068 0H14.1238C19.7014 0 22.0845 2.38307 22.0845 7.96068V14.1238C22.0845 19.7014 19.7014 22.0845 14.1238 22.0845ZM7.96068 1.54078C3.22536 1.54078 1.54078 3.22536 1.54078 7.96068V14.1238C1.54078 18.8591 3.22536 20.5437 7.96068 20.5437H14.1238C18.8591 20.5437 20.5437 18.8591 20.5437 14.1238V7.96068C20.5437 3.22536 18.8591 1.54078 14.1238 1.54078H7.96068Z" fill="#292D32"/>
<path d="M12.3361 15.4387C12.141 15.4387 11.9458 15.3668 11.7917 15.2128L8.1658 11.5868C7.86791 11.2889 7.86791 10.7959 8.1658 10.498L11.7917 6.87197C12.0896 6.57409 12.5827 6.57409 12.8806 6.87197C13.1784 7.16986 13.1784 7.6629 12.8806 7.96079L9.799 11.0424L12.8806 14.1239C13.1784 14.4218 13.1784 14.9149 12.8806 15.2128C12.7367 15.3668 12.5416 15.4387 12.3361 15.4387Z" fill="#292D32"/>
</svg>
